<mxfile host="app.diagrams.net" modified="2024-01-23T14:48:55.195Z" agent="Mozilla/5.0 (Macintosh; Intel Mac OS X 10_15_7) AppleWebKit/537.36 (KHTML, like Gecko) Chrome/120.0.0.0 Safari/537.36" etag="bDw-lOLTYy7cL9kyRYfH" version="22.1.22" type="github">
  <diagram name="Page-1" id="JiydAraUhOQ0N23eVqzQ">
    <mxGraphModel dx="1194" dy="756" grid="1" gridSize="10" guides="1" tooltips="1" connect="1" arrows="1" fold="1" page="1" pageScale="1" pageWidth="850" pageHeight="1100" math="0" shadow="0">
      <root>
        <mxCell id="0" />
        <mxCell id="1" parent="0" />
        <mxCell id="JNl-7g5QmU6bNraVdxka-4" style="edgeStyle=orthogonalEdgeStyle;rounded=0;orthogonalLoop=1;jettySize=auto;html=1;entryX=0.5;entryY=0;entryDx=0;entryDy=0;" edge="1" parent="1" source="JNl-7g5QmU6bNraVdxka-1" target="JNl-7g5QmU6bNraVdxka-3">
          <mxGeometry relative="1" as="geometry" />
        </mxCell>
        <mxCell id="JNl-7g5QmU6bNraVdxka-15" style="edgeStyle=orthogonalEdgeStyle;rounded=0;orthogonalLoop=1;jettySize=auto;html=1;fontFamily=Helvetica;fontSize=12;fontColor=default;" edge="1" parent="1" source="JNl-7g5QmU6bNraVdxka-1" target="JNl-7g5QmU6bNraVdxka-14">
          <mxGeometry relative="1" as="geometry" />
        </mxCell>
        <mxCell id="JNl-7g5QmU6bNraVdxka-1" value="&lt;font style=&quot;font-size: 18px;&quot;&gt;start&lt;/font&gt;" style="rounded=1;whiteSpace=wrap;html=1;" vertex="1" parent="1">
          <mxGeometry x="290" y="10" width="120" height="60" as="geometry" />
        </mxCell>
        <mxCell id="JNl-7g5QmU6bNraVdxka-6" value="" style="edgeStyle=orthogonalEdgeStyle;rounded=0;orthogonalLoop=1;jettySize=auto;html=1;" edge="1" parent="1" source="JNl-7g5QmU6bNraVdxka-3" target="JNl-7g5QmU6bNraVdxka-5">
          <mxGeometry relative="1" as="geometry" />
        </mxCell>
        <mxCell id="JNl-7g5QmU6bNraVdxka-3" value="&lt;font size=&quot;3&quot;&gt;ask user to pick a letter&lt;/font&gt;" style="rounded=1;whiteSpace=wrap;html=1;" vertex="1" parent="1">
          <mxGeometry x="290" y="300" width="120" height="60" as="geometry" />
        </mxCell>
        <mxCell id="JNl-7g5QmU6bNraVdxka-19" style="edgeStyle=orthogonalEdgeStyle;rounded=0;orthogonalLoop=1;jettySize=auto;html=1;entryX=0.5;entryY=0;entryDx=0;entryDy=0;fontFamily=Helvetica;fontSize=12;fontColor=default;" edge="1" parent="1" source="JNl-7g5QmU6bNraVdxka-5" target="JNl-7g5QmU6bNraVdxka-7">
          <mxGeometry relative="1" as="geometry" />
        </mxCell>
        <mxCell id="JNl-7g5QmU6bNraVdxka-20" style="edgeStyle=orthogonalEdgeStyle;rounded=0;orthogonalLoop=1;jettySize=auto;html=1;fontFamily=Helvetica;fontSize=12;fontColor=default;" edge="1" parent="1" source="JNl-7g5QmU6bNraVdxka-5" target="JNl-7g5QmU6bNraVdxka-11">
          <mxGeometry relative="1" as="geometry" />
        </mxCell>
        <mxCell id="JNl-7g5QmU6bNraVdxka-5" value="check if letter is in the target word" style="rounded=1;whiteSpace=wrap;html=1;" vertex="1" parent="1">
          <mxGeometry x="290" y="400" width="120" height="60" as="geometry" />
        </mxCell>
        <mxCell id="JNl-7g5QmU6bNraVdxka-22" value="" style="edgeStyle=orthogonalEdgeStyle;rounded=0;orthogonalLoop=1;jettySize=auto;html=1;fontFamily=Helvetica;fontSize=12;fontColor=default;" edge="1" parent="1" source="JNl-7g5QmU6bNraVdxka-7" target="JNl-7g5QmU6bNraVdxka-21">
          <mxGeometry relative="1" as="geometry" />
        </mxCell>
        <mxCell id="JNl-7g5QmU6bNraVdxka-7" value="&lt;font size=&quot;3&quot;&gt;Populate letter in the word&lt;/font&gt;" style="rounded=1;whiteSpace=wrap;html=1;" vertex="1" parent="1">
          <mxGeometry x="130" y="520" width="120" height="60" as="geometry" />
        </mxCell>
        <mxCell id="JNl-7g5QmU6bNraVdxka-33" value="" style="edgeStyle=orthogonalEdgeStyle;rounded=0;orthogonalLoop=1;jettySize=auto;html=1;fontFamily=Helvetica;fontSize=12;fontColor=default;" edge="1" parent="1" source="JNl-7g5QmU6bNraVdxka-11" target="JNl-7g5QmU6bNraVdxka-32">
          <mxGeometry relative="1" as="geometry" />
        </mxCell>
        <mxCell id="JNl-7g5QmU6bNraVdxka-11" value="&lt;font size=&quot;3&quot;&gt;Add element to hangman&lt;/font&gt;" style="rounded=1;whiteSpace=wrap;html=1;" vertex="1" parent="1">
          <mxGeometry x="425" y="520" width="120" height="60" as="geometry" />
        </mxCell>
        <mxCell id="JNl-7g5QmU6bNraVdxka-17" style="edgeStyle=orthogonalEdgeStyle;rounded=0;orthogonalLoop=1;jettySize=auto;html=1;fontFamily=Helvetica;fontSize=12;fontColor=default;" edge="1" parent="1" source="JNl-7g5QmU6bNraVdxka-14" target="JNl-7g5QmU6bNraVdxka-16">
          <mxGeometry relative="1" as="geometry" />
        </mxCell>
        <mxCell id="JNl-7g5QmU6bNraVdxka-14" value="Generate random word" style="rounded=1;whiteSpace=wrap;html=1;strokeColor=default;align=center;verticalAlign=middle;fontFamily=Helvetica;fontSize=12;fontColor=default;fillColor=default;" vertex="1" parent="1">
          <mxGeometry x="290" y="110" width="120" height="60" as="geometry" />
        </mxCell>
        <mxCell id="JNl-7g5QmU6bNraVdxka-18" style="edgeStyle=orthogonalEdgeStyle;rounded=0;orthogonalLoop=1;jettySize=auto;html=1;fontFamily=Helvetica;fontSize=12;fontColor=default;" edge="1" parent="1" source="JNl-7g5QmU6bNraVdxka-16" target="JNl-7g5QmU6bNraVdxka-3">
          <mxGeometry relative="1" as="geometry" />
        </mxCell>
        <mxCell id="JNl-7g5QmU6bNraVdxka-16" value="Generate blanks for each letter in word" style="rounded=1;whiteSpace=wrap;html=1;strokeColor=default;align=center;verticalAlign=middle;fontFamily=Helvetica;fontSize=12;fontColor=default;fillColor=default;" vertex="1" parent="1">
          <mxGeometry x="290" y="200" width="120" height="60" as="geometry" />
        </mxCell>
        <mxCell id="JNl-7g5QmU6bNraVdxka-24" value="" style="edgeStyle=orthogonalEdgeStyle;rounded=0;orthogonalLoop=1;jettySize=auto;html=1;fontFamily=Helvetica;fontSize=12;fontColor=default;" edge="1" parent="1" source="JNl-7g5QmU6bNraVdxka-21" target="JNl-7g5QmU6bNraVdxka-23">
          <mxGeometry relative="1" as="geometry" />
        </mxCell>
        <mxCell id="JNl-7g5QmU6bNraVdxka-25" value="" style="edgeStyle=orthogonalEdgeStyle;rounded=0;orthogonalLoop=1;jettySize=auto;html=1;fontFamily=Helvetica;fontSize=12;fontColor=default;" edge="1" parent="1" source="JNl-7g5QmU6bNraVdxka-21" target="JNl-7g5QmU6bNraVdxka-23">
          <mxGeometry relative="1" as="geometry" />
        </mxCell>
        <mxCell id="JNl-7g5QmU6bNraVdxka-31" style="edgeStyle=orthogonalEdgeStyle;rounded=0;orthogonalLoop=1;jettySize=auto;html=1;fontFamily=Helvetica;fontSize=12;fontColor=default;" edge="1" parent="1" source="JNl-7g5QmU6bNraVdxka-21" target="JNl-7g5QmU6bNraVdxka-3">
          <mxGeometry relative="1" as="geometry">
            <Array as="points">
              <mxPoint x="10" y="690" />
              <mxPoint x="10" y="330" />
            </Array>
          </mxGeometry>
        </mxCell>
        <mxCell id="JNl-7g5QmU6bNraVdxka-21" value="Check if all letters are guessed" style="rounded=1;whiteSpace=wrap;html=1;" vertex="1" parent="1">
          <mxGeometry x="130" y="660" width="120" height="60" as="geometry" />
        </mxCell>
        <mxCell id="JNl-7g5QmU6bNraVdxka-23" value="game over!" style="rounded=1;whiteSpace=wrap;html=1;" vertex="1" parent="1">
          <mxGeometry x="130" y="800" width="120" height="60" as="geometry" />
        </mxCell>
        <mxCell id="JNl-7g5QmU6bNraVdxka-35" value="" style="edgeStyle=orthogonalEdgeStyle;rounded=0;orthogonalLoop=1;jettySize=auto;html=1;fontFamily=Helvetica;fontSize=12;fontColor=default;" edge="1" parent="1" source="JNl-7g5QmU6bNraVdxka-32" target="JNl-7g5QmU6bNraVdxka-34">
          <mxGeometry relative="1" as="geometry" />
        </mxCell>
        <mxCell id="JNl-7g5QmU6bNraVdxka-36" style="edgeStyle=orthogonalEdgeStyle;rounded=0;orthogonalLoop=1;jettySize=auto;html=1;fontFamily=Helvetica;fontSize=12;fontColor=default;" edge="1" parent="1" source="JNl-7g5QmU6bNraVdxka-32" target="JNl-7g5QmU6bNraVdxka-3">
          <mxGeometry relative="1" as="geometry">
            <Array as="points">
              <mxPoint x="700" y="690" />
              <mxPoint x="700" y="330" />
            </Array>
          </mxGeometry>
        </mxCell>
        <mxCell id="JNl-7g5QmU6bNraVdxka-32" value="check if hangman is complete" style="rounded=1;whiteSpace=wrap;html=1;" vertex="1" parent="1">
          <mxGeometry x="425" y="660" width="120" height="60" as="geometry" />
        </mxCell>
        <mxCell id="JNl-7g5QmU6bNraVdxka-34" value="game over&lt;br&gt;user lost" style="rounded=1;whiteSpace=wrap;html=1;" vertex="1" parent="1">
          <mxGeometry x="425" y="800" width="120" height="60" as="geometry" />
        </mxCell>
      </root>
    </mxGraphModel>
  </diagram>
</mxfile>
